# CAD Exchanger 3.24.0 (cadexchanger.com)
# Object Count: 1
mtllib MyCube.mtl
g Model_Space
v 10.000000 0.000000 10.000000
v 10.000000 10.000000 10.000000
v 0.000000 10.000000 10.000000
v 0.000000 0.000000 10.000000
v 10.000000 10.000000 0.000000
v 10.000000 0.000000 0.000000
v 0.000000 0.000000 0.000000
v 0.000000 10.000000 0.000000
vn 0.000000 0.000000 1.000000
vn 0.000000 0.000000 1.000000
vn 0.000000 0.000000 1.000000
vn 0.000000 0.000000 1.000000
vn -0.000000 -0.000000 -1.000000
vn -0.000000 -0.000000 -1.000000
vn -0.000000 -0.000000 -1.000000
vn -0.000000 -0.000000 -1.000000
vn -0.000000 -1.000000 -0.000000
vn -0.000000 -1.000000 -0.000000
vn -0.000000 -1.000000 -0.000000
vn -0.000000 -1.000000 -0.000000
vn -1.000000 -0.000000 -0.000000
vn -1.000000 -0.000000 -0.000000
vn -1.000000 -0.000000 -0.000000
vn -1.000000 -0.000000 -0.000000
vn -0.000000 1.000000 -0.000000
vn -0.000000 1.000000 -0.000000
vn -0.000000 1.000000 -0.000000
vn -0.000000 1.000000 -0.000000
vn 1.000000 -0.000000 -0.000000
vn 1.000000 -0.000000 -0.000000
vn 1.000000 -0.000000 -0.000000
vn 1.000000 -0.000000 -0.000000
usemtl Material_1
f 3//3 1//1 2//2
f 4//4 1//1 3//3
f 7//7 8//6 5//5
f 6//8 7//7 5//5
f 6//11 1//10 4//9
f 7//12 6//11 4//9
f 7//15 3//13 8//16
f 7//15 4//14 3//13
f 8//19 2//17 5//20
f 8//19 3//18 2//17
f 5//23 2//22 1//21
f 6//24 5//23 1//21
